# xmcd
# 
# Track frame offsets:
#     150
#     28557
#     40045
#     77485
#     95342
#     125587
#     152687
#     176547
#     195007
#     228520
# 
# Disc length: 3339
# 
# Revision: 1
# Processed by: cddbd v1.5.2PL0 Copyright (c) Steve Scherf et al.
# Submitted via: BonkEnc v1.0.8
# 
DISCID=680d090a
DTITLE=Jim Hall, Bill Frisell - Hemispheres - Quartet
DYEAR=2008
DGENRE=Contemporary Jazz
TTITLE0=I'll Remember April
TTITLE1=Barbaro
TTITLE2=Chelsea Bridge
TTITLE3=Owed To Freddie Green
TTITLE4=Beija Flor
TTITLE5=Hear And Now
TTITLE6=My Funny Valentine
TTITLE7=Card Tricks
TTITLE8=In A Sentimental Mood
TTITLE9=Sonnymoon For Two
EXTD=YEAR: 2008
EXTT0=
EXTT1=
EXTT2=
EXTT3=
EXTT4=
EXTT5=
EXTT6=
EXTT7=
EXTT8=
EXTT9=
PLAYORDER=
